<svg id="svg" version="1.1" xmlns="http://www.w3.org/2000/svg" xmlns:xlink="http://www.w3.org/1999/xlink" width="400" height="409.30232558139534" viewBox="0, 0, 400,409.30232558139534"><g id="svgg"><path id="path0" d="M197.000 35.869 C 195.579 36.270,193.640 38.092,178.705 53.067 C 158.159 73.666,119.415 112.667,116.933 115.250 C 115.797 116.432,113.727 118.489,112.333 119.821 C 110.940 121.152,109.260 122.822,108.600 123.531 C 107.241 124.993,108.835 123.387,70.100 162.287 C 54.205 178.249,41.193 191.419,41.185 191.554 C 41.177 191.690,40.367 192.429,39.385 193.198 C 38.403 193.967,37.600 194.810,37.600 195.071 C 37.600 195.332,37.240 195.660,36.800 195.800 C 36.360 195.940,36.000 196.187,36.000 196.349 C 36.000 196.841,33.324 199.600,32.846 199.600 C 32.601 199.600,32.400 199.782,32.400 200.005 C 32.400 200.532,27.776 205.200,27.254 205.200 C 27.034 205.200,26.750 205.528,26.623 205.929 C 26.495 206.330,25.583 207.263,24.596 208.003 C 23.608 208.743,22.800 209.585,22.800 209.874 C 22.800 210.163,22.641 210.400,22.447 210.400 C 21.987 210.400,18.800 213.587,18.800 214.047 C 18.800 214.241,18.524 214.400,18.187 214.400 C 17.851 214.400,17.457 214.715,17.313 215.100 C 17.169 215.485,14.970 217.914,12.426 220.497 C 6.820 226.189,6.481 226.647,5.264 230.161 L 4.300 232.941 5.210 235.771 C 6.369 239.377,9.594 242.801,12.527 243.540 C 13.531 243.793,14.464 244.180,14.600 244.400 C 14.912 244.905,17.712 244.926,18.220 244.426 C 18.429 244.221,19.443 243.726,20.474 243.326 C 22.644 242.486,25.602 239.910,32.943 232.473 C 35.834 229.544,39.237 226.124,40.504 224.873 C 41.771 223.623,44.291 221.093,46.104 219.251 C 55.557 209.644,103.907 160.955,130.221 134.544 C 146.733 117.971,160.785 103.824,161.449 103.106 C 162.112 102.388,163.273 101.216,164.028 100.503 C 165.954 98.682,166.263 98.375,167.714 96.838 C 168.421 96.089,169.616 94.919,170.369 94.238 C 171.122 93.557,172.832 91.846,174.169 90.437 C 175.506 89.027,177.212 87.317,177.960 86.637 C 178.708 85.956,179.518 85.169,179.760 84.886 C 183.691 80.297,200.215 64.400,201.054 64.400 C 201.894 64.400,218.936 80.981,229.520 92.094 C 229.674 92.256,230.443 92.976,231.230 93.694 C 232.016 94.413,232.775 95.315,232.917 95.700 C 233.059 96.085,233.360 96.400,233.587 96.400 C 234.108 96.400,244.000 106.310,244.000 106.833 C 244.000 107.046,244.450 107.391,245.000 107.600 C 245.550 107.809,246.000 108.255,246.000 108.590 C 246.000 108.926,246.152 109.200,246.339 109.200 C 246.727 109.200,249.449 111.771,249.660 112.336 C 249.737 112.542,250.557 113.340,251.482 114.109 C 252.408 114.878,254.388 116.814,255.882 118.411 C 260.167 122.988,263.652 126.400,264.042 126.400 C 264.239 126.400,264.400 126.559,264.400 126.754 C 264.400 126.949,279.835 142.596,298.700 161.527 C 317.565 180.457,342.833 205.813,354.851 217.873 C 380.604 243.715,379.862 243.010,381.696 243.354 C 382.479 243.501,383.340 243.886,383.609 244.211 C 383.914 244.579,384.812 244.800,386.000 244.800 C 387.188 244.800,388.086 244.579,388.391 244.211 C 388.660 243.886,389.471 243.510,390.193 243.375 C 391.909 243.053,395.331 239.835,395.947 237.965 C 396.207 237.175,396.865 235.925,397.410 235.187 C 398.709 233.425,398.703 231.624,397.393 230.394 C 396.840 229.874,396.172 228.733,395.911 227.860 C 395.544 226.634,393.973 224.796,389.018 219.794 C 385.488 216.232,382.011 212.660,381.290 211.858 C 380.570 211.056,379.805 210.400,379.590 210.400 C 379.376 210.400,379.200 210.136,379.200 209.814 C 379.200 209.492,378.840 209.036,378.401 208.800 C 377.569 208.355,377.277 208.068,367.545 198.100 C 364.269 194.745,361.456 192.000,361.294 192.000 C 361.132 192.000,360.010 190.912,358.800 189.584 C 357.590 188.255,354.260 184.837,351.400 181.987 C 348.540 179.137,346.066 176.669,345.902 176.502 C 334.245 164.689,295.466 125.638,258.302 88.287 C 231.643 61.496,209.735 39.440,209.616 39.274 C 207.584 36.441,201.139 34.701,197.000 35.869 M197.630 102.417 C 195.600 102.858,194.122 103.397,193.910 103.774 C 193.718 104.118,193.351 104.400,193.094 104.400 C 192.627 104.400,178.834 118.253,170.600 126.991 C 165.727 132.163,165.964 131.923,163.974 133.715 C 163.189 134.422,162.430 135.315,162.286 135.700 C 162.143 136.085,161.778 136.400,161.477 136.400 C 161.175 136.400,160.723 136.850,160.473 137.400 C 160.222 137.950,159.743 138.400,159.409 138.400 C 159.074 138.400,158.800 138.597,158.800 138.837 C 158.800 139.077,157.295 140.832,155.455 142.737 C 153.615 144.642,150.150 148.253,147.755 150.762 C 145.360 153.271,142.590 156.166,141.600 157.197 C 140.610 158.227,136.560 162.449,132.600 166.578 C 128.640 170.707,123.690 175.859,121.600 178.028 C 119.510 180.196,115.426 184.452,112.524 187.485 C 109.623 190.518,104.653 195.700,101.480 199.000 C 98.308 202.300,95.152 205.648,94.467 206.441 C 93.782 207.233,90.697 210.424,87.611 213.533 C 84.525 216.641,82.000 219.368,82.000 219.592 C 82.000 219.817,81.742 220.000,81.427 220.000 C 81.112 220.000,80.743 220.351,80.606 220.780 C 80.470 221.208,80.008 221.670,79.580 221.806 C 79.151 221.943,78.800 222.227,78.800 222.439 C 78.800 222.651,76.325 225.363,73.300 228.466 C 61.439 240.632,62.061 239.916,61.802 241.726 C 61.670 242.647,61.616 270.674,61.681 304.010 L 61.800 364.620 62.700 365.764 C 63.195 366.393,63.600 367.140,63.600 367.423 C 63.600 367.707,64.050 368.473,64.600 369.127 C 65.150 369.781,65.600 370.501,65.600 370.728 C 65.600 370.956,66.095 371.401,66.700 371.719 C 69.845 373.372,71.840 374.505,72.180 374.833 C 72.574 375.213,149.885 375.373,150.867 374.996 C 151.308 374.826,151.389 364.784,151.335 316.896 C 151.266 254.976,151.303 253.680,153.197 251.119 C 153.639 250.521,154.000 249.847,154.000 249.620 C 154.000 249.393,154.360 248.982,154.800 248.707 C 155.240 248.432,155.600 248.016,155.600 247.782 C 155.600 247.259,158.092 244.800,158.623 244.800 C 158.834 244.800,159.232 244.440,159.507 244.000 C 159.782 243.560,160.247 243.200,160.541 243.200 C 160.835 243.200,161.399 242.844,161.793 242.408 C 162.187 241.972,163.160 241.512,163.955 241.386 C 164.750 241.259,165.991 240.896,166.714 240.578 C 168.658 239.722,232.423 239.713,234.692 240.568 C 235.521 240.881,236.881 241.250,237.712 241.389 C 239.977 241.766,245.362 245.440,246.134 247.134 C 246.377 247.667,247.040 248.600,247.607 249.208 C 248.621 250.293,249.448 251.990,250.351 254.839 C 250.685 255.891,250.805 272.247,250.796 315.598 C 250.790 348.224,250.860 374.993,250.952 375.085 C 251.044 375.177,268.487 375.241,289.715 375.228 L 328.312 375.204 330.456 374.206 C 331.635 373.657,332.797 373.206,333.038 373.204 C 333.279 373.202,333.802 372.840,334.200 372.400 C 334.598 371.960,335.172 371.600,335.475 371.600 C 335.777 371.600,336.137 371.285,336.273 370.900 C 336.410 370.515,336.751 369.930,337.031 369.600 C 337.311 369.270,338.074 367.983,338.728 366.740 L 339.916 364.479 340.058 301.649 L 340.200 238.818 334.600 233.143 C 331.520 230.022,328.505 226.976,327.900 226.374 C 327.295 225.772,326.800 225.086,326.800 224.850 C 326.800 224.614,326.296 224.160,325.679 223.841 C 325.062 223.522,324.207 222.777,323.779 222.184 C 321.859 219.530,317.595 215.039,316.375 214.387 C 315.949 214.158,315.600 213.720,315.600 213.413 C 315.600 213.105,315.240 212.740,314.800 212.600 C 314.360 212.460,314.000 212.205,314.000 212.031 C 314.000 211.858,313.545 211.196,312.989 210.558 C 311.586 208.952,311.313 208.663,310.719 208.160 C 310.434 207.918,309.621 207.108,308.914 206.360 C 308.206 205.612,307.442 204.820,307.216 204.600 C 306.192 203.605,288.307 184.951,282.296 178.609 C 269.986 165.622,261.950 157.255,254.800 149.982 C 246.885 141.931,236.263 130.811,235.912 130.208 C 235.753 129.936,234.808 128.887,233.812 127.876 C 232.815 126.865,232.000 125.849,232.000 125.619 C 232.000 125.389,231.793 125.200,231.540 125.200 C 230.970 125.200,228.655 122.848,228.292 121.900 C 228.145 121.515,227.794 121.196,227.513 121.192 C 227.231 121.187,226.460 120.557,225.800 119.792 C 223.547 117.178,210.994 104.400,210.681 104.400 C 210.508 104.400,209.880 104.042,209.284 103.605 C 208.430 102.978,202.197 101.471,201.200 101.651 C 201.090 101.670,199.484 102.016,197.630 102.417 " stroke="none" fill="#050505" fill-rule="evenodd"></path><path id="path1" d="M0.000 204.600 L 0.000 409.200 200.000 409.200 L 400.000 409.200 400.000 323.800 C 400.000 249.878,399.923 238.400,399.426 238.400 C 398.167 238.400,396.888 239.193,396.656 240.118 C 396.405 241.119,393.615 243.659,391.938 244.412 C 391.422 244.645,390.550 245.103,390.000 245.432 C 388.605 246.265,382.784 246.065,381.742 245.147 C 381.334 244.788,380.550 244.358,380.000 244.191 C 379.450 244.024,378.505 243.508,377.900 243.044 C 376.443 241.926,327.038 192.508,326.867 191.997 C 326.793 191.778,326.599 191.600,326.435 191.600 C 326.271 191.600,323.541 188.974,320.368 185.764 C 317.196 182.554,306.590 171.859,296.800 161.996 C 287.010 152.133,277.264 142.295,275.143 140.132 C 273.022 137.969,270.011 134.961,268.453 133.446 C 266.895 131.931,265.516 130.365,265.389 129.966 C 265.263 129.567,264.808 129.130,264.380 128.994 C 263.951 128.857,263.600 128.593,263.600 128.407 C 263.600 128.220,262.941 127.467,262.135 126.734 C 260.799 125.517,253.158 117.886,245.180 109.800 C 243.443 108.040,240.982 105.588,239.711 104.350 C 238.440 103.113,235.555 100.188,233.300 97.850 C 231.045 95.513,229.108 93.600,228.995 93.600 C 228.882 93.600,227.037 91.774,224.895 89.543 C 222.753 87.311,220.145 84.649,219.100 83.626 C 218.055 82.604,217.200 81.578,217.200 81.348 C 217.200 81.117,216.750 80.723,216.200 80.473 C 215.650 80.222,215.200 79.743,215.200 79.409 C 215.200 79.074,214.990 78.800,214.733 78.800 C 214.476 78.800,211.413 75.920,207.927 72.400 C 200.810 65.216,201.051 65.338,198.884 67.800 C 198.012 68.790,197.140 69.600,196.945 69.600 C 196.751 69.600,195.835 70.545,194.910 71.700 C 193.985 72.855,191.577 75.330,189.559 77.200 C 187.540 79.070,184.788 81.751,183.444 83.158 C 182.100 84.565,177.580 89.184,173.400 93.423 C 165.272 101.664,163.464 103.490,154.795 112.200 C 138.780 128.293,111.616 155.705,110.347 157.055 C 109.548 157.905,107.028 160.407,104.747 162.616 C 102.466 164.825,99.949 167.345,99.153 168.216 C 98.356 169.087,96.241 171.238,94.453 172.996 C 92.664 174.753,91.200 176.328,91.200 176.496 C 91.200 176.663,90.942 176.800,90.627 176.800 C 90.312 176.800,89.953 177.117,89.830 177.505 C 89.707 177.893,88.705 178.925,87.603 179.798 C 86.501 180.670,85.600 181.495,85.600 181.631 C 85.600 181.767,74.350 193.164,60.600 206.957 C 46.850 220.750,35.600 232.208,35.600 232.418 C 35.600 232.628,35.412 232.800,35.183 232.800 C 34.953 232.800,33.288 234.358,31.483 236.263 C 25.944 242.105,24.459 243.479,23.104 244.016 C 22.387 244.299,21.477 244.807,21.083 245.144 C 19.645 246.369,13.569 246.282,11.033 244.999 C 1.609 240.231,0.451 230.356,8.377 222.351 C 9.820 220.895,11.882 218.690,12.961 217.451 C 14.039 216.213,15.152 215.200,15.434 215.200 C 15.716 215.200,16.060 214.840,16.200 214.400 C 16.340 213.960,16.609 213.600,16.798 213.600 C 16.987 213.600,18.139 212.565,19.359 211.300 C 27.969 202.369,46.809 183.600,47.165 183.600 C 47.404 183.600,47.600 183.412,47.600 183.182 C 47.600 182.817,62.262 167.696,65.949 164.258 C 66.691 163.566,67.951 162.317,68.749 161.482 C 71.088 159.033,95.663 134.222,123.936 105.764 C 138.381 91.224,151.280 78.220,152.600 76.865 C 153.920 75.510,159.860 69.556,165.800 63.633 C 171.740 57.710,179.771 49.654,183.646 45.732 C 192.559 36.710,193.837 35.579,195.800 34.980 C 196.680 34.711,198.080 34.165,198.911 33.766 C 200.549 32.981,200.790 33.015,205.669 34.738 C 208.787 35.838,201.040 28.289,262.800 90.416 C 360.465 188.661,358.000 186.167,358.000 186.752 C 358.000 186.998,358.219 187.200,358.488 187.200 C 359.075 187.200,378.400 206.597,378.400 207.187 C 378.400 207.414,378.590 207.600,378.822 207.600 C 379.054 207.600,382.844 211.245,387.244 215.700 C 396.886 225.461,396.258 224.774,396.766 226.111 C 397.109 227.012,397.423 227.200,398.590 227.200 L 400.000 227.200 400.000 113.600 L 400.000 0.000 200.000 0.000 L 0.000 0.000 0.000 204.600 M207.794 101.142 C 208.671 101.614,209.549 102.000,209.745 102.000 C 210.339 102.000,216.505 107.399,218.414 109.591 C 219.396 110.719,222.225 113.688,224.700 116.189 C 227.175 118.690,229.200 120.851,229.200 120.991 C 229.200 121.132,231.315 123.362,233.900 125.947 C 236.485 128.532,241.030 133.230,244.000 136.387 C 246.970 139.544,250.817 143.493,252.549 145.163 C 254.280 146.834,255.900 148.449,256.149 148.753 C 256.397 149.057,258.332 151.127,260.450 153.353 C 262.567 155.579,265.423 158.660,266.796 160.200 C 268.169 161.740,269.542 163.144,269.846 163.320 C 270.151 163.496,270.400 163.889,270.400 164.193 C 270.400 164.497,270.751 164.857,271.180 164.994 C 271.608 165.130,272.070 165.592,272.206 166.020 C 272.343 166.449,272.729 166.800,273.064 166.800 C 273.400 166.800,273.767 167.154,273.881 167.587 C 273.994 168.019,274.427 168.482,274.843 168.614 C 275.259 168.746,275.600 168.990,275.600 169.157 C 275.600 169.323,277.715 171.637,280.300 174.297 C 282.885 176.958,288.600 182.869,293.000 187.432 C 297.400 191.995,301.337 196.015,301.749 196.365 C 302.584 197.073,302.661 197.157,304.497 199.371 C 305.214 200.234,307.060 202.248,308.600 203.845 C 310.140 205.443,311.622 206.986,311.894 207.275 C 312.166 207.564,312.932 208.340,313.596 209.000 C 314.261 209.660,314.906 210.515,315.030 210.900 C 315.153 211.285,315.529 211.600,315.864 211.600 C 316.200 211.600,316.569 211.960,316.684 212.400 C 316.799 212.840,317.071 213.200,317.288 213.200 C 317.659 213.200,322.400 217.826,322.400 218.188 C 322.400 218.280,324.875 220.884,327.900 223.975 C 330.925 227.066,333.598 229.821,333.840 230.097 C 334.082 230.374,334.892 231.176,335.640 231.880 C 336.942 233.106,340.337 236.740,341.600 238.259 C 342.127 238.893,342.201 245.641,342.205 293.591 C 342.210 362.339,342.127 365.131,339.986 368.084 C 339.554 368.680,339.200 369.304,339.200 369.470 C 339.200 369.636,338.795 370.193,338.300 370.708 C 333.318 375.891,332.203 376.372,324.126 376.819 C 311.591 377.513,250.175 377.293,249.559 376.551 C 249.114 376.014,249.011 365.464,248.961 315.451 L 248.900 255.000 247.639 252.539 C 246.945 251.186,246.112 249.859,245.788 249.590 C 245.465 249.322,245.200 248.869,245.200 248.585 C 245.200 248.301,244.313 247.417,243.229 246.621 C 242.145 245.826,241.200 245.045,241.129 244.887 C 241.058 244.729,239.921 244.060,238.602 243.400 L 236.204 242.200 200.602 242.200 L 165.000 242.200 163.444 243.300 C 162.588 243.905,161.687 244.400,161.440 244.400 C 161.194 244.400,160.768 244.760,160.493 245.200 C 160.218 245.640,159.791 246.000,159.544 246.000 C 158.823 246.000,154.800 250.562,154.800 251.380 C 154.800 251.662,154.395 252.407,153.900 253.036 L 153.000 254.180 152.940 314.936 C 152.886 370.608,152.826 375.746,152.226 376.345 C 151.450 377.122,75.472 377.563,74.996 376.794 C 74.862 376.577,74.103 376.400,73.308 376.400 C 70.858 376.400,64.400 372.840,64.400 371.489 C 64.400 371.291,64.049 370.829,63.621 370.464 C 62.614 369.606,60.801 366.126,60.796 365.040 C 60.793 364.578,60.538 363.364,60.227 362.342 C 59.754 360.781,59.659 351.003,59.633 301.224 L 59.603 241.963 60.444 240.281 C 60.907 239.357,62.527 237.399,64.043 235.930 C 65.559 234.462,66.800 233.067,66.800 232.830 C 66.800 232.594,66.945 232.400,67.122 232.400 C 67.513 232.400,70.400 229.794,70.400 229.440 C 70.400 229.302,72.920 226.655,76.000 223.558 C 79.080 220.461,81.600 217.776,81.600 217.591 C 81.600 217.405,81.960 217.140,82.400 217.000 C 82.840 216.860,83.200 216.540,83.200 216.287 C 83.200 216.035,83.554 215.462,83.986 215.014 C 84.419 214.566,86.984 211.862,89.686 209.004 C 98.891 199.271,100.202 197.914,108.500 189.533 C 113.065 184.922,116.800 180.976,116.800 180.765 C 116.800 180.553,117.250 180.209,117.800 180.000 C 118.350 179.791,118.800 179.357,118.800 179.037 C 118.800 178.716,119.160 178.340,119.600 178.200 C 120.040 178.060,120.400 177.783,120.400 177.583 C 120.400 177.384,121.505 176.091,122.856 174.710 C 124.207 173.330,125.578 171.795,125.902 171.300 C 126.227 170.805,126.741 170.400,127.046 170.400 C 127.351 170.400,127.600 170.205,127.600 169.966 C 127.600 169.547,129.339 167.665,138.454 158.212 C 140.794 155.785,144.844 151.579,147.454 148.865 C 150.065 146.152,154.720 141.343,157.800 138.180 C 160.880 135.017,165.020 130.710,167.000 128.609 C 168.980 126.507,171.212 124.206,171.960 123.494 C 172.708 122.782,173.518 121.948,173.760 121.640 C 174.002 121.332,175.100 120.140,176.200 118.992 C 177.300 117.843,181.064 113.910,184.564 110.251 C 188.065 106.593,191.162 103.600,191.449 103.600 C 191.735 103.600,192.291 103.267,192.684 102.860 C 193.078 102.452,194.030 101.891,194.800 101.612 C 195.570 101.333,196.830 100.852,197.600 100.544 C 199.740 99.687,205.746 100.039,207.794 101.142 " stroke="none" fill="#f4f4f4" fill-rule="evenodd"></path><path id="path2" d="M198.671 33.844 C 198.051 34.180,196.791 34.683,195.871 34.962 C 193.834 35.579,192.613 36.655,183.646 45.732 C 179.771 49.654,171.740 57.710,165.800 63.633 C 159.860 69.556,153.920 75.510,152.600 76.865 C 151.280 78.220,138.381 91.224,123.936 105.764 C 95.663 134.222,71.088 159.033,68.749 161.482 C 67.951 162.317,66.691 163.566,65.949 164.258 C 62.262 167.696,47.600 182.817,47.600 183.182 C 47.600 183.412,47.404 183.600,47.165 183.600 C 46.809 183.600,27.969 202.369,19.359 211.300 C 18.139 212.565,16.987 213.600,16.798 213.600 C 16.609 213.600,16.340 213.960,16.200 214.400 C 16.060 214.840,15.716 215.200,15.434 215.200 C 15.152 215.200,14.039 216.213,12.961 217.451 C 11.882 218.690,9.820 220.895,8.377 222.351 C 0.451 230.356,1.609 240.231,11.033 244.999 C 13.569 246.282,19.645 246.369,21.083 245.144 C 21.477 244.807,22.387 244.299,23.104 244.016 C 24.459 243.479,25.944 242.105,31.483 236.263 C 33.288 234.358,34.953 232.800,35.183 232.800 C 35.412 232.800,35.600 232.628,35.600 232.418 C 35.600 232.208,46.850 220.750,60.600 206.957 C 74.350 193.164,85.600 181.767,85.600 181.631 C 85.600 181.495,86.501 180.670,87.603 179.798 C 88.705 178.925,89.707 177.893,89.830 177.505 C 89.953 177.117,90.312 176.800,90.627 176.800 C 90.942 176.800,91.200 176.663,91.200 176.496 C 91.200 176.328,92.664 174.753,94.453 172.996 C 96.241 171.238,98.356 169.087,99.153 168.216 C 99.949 167.345,102.466 164.825,104.747 162.616 C 107.028 160.407,109.548 157.905,110.347 157.055 C 111.616 155.705,138.780 128.293,154.795 112.200 C 163.464 103.490,165.272 101.664,173.400 93.423 C 177.580 89.184,182.100 84.565,183.444 83.158 C 184.788 81.751,187.540 79.070,189.559 77.200 C 191.577 75.330,193.985 72.855,194.910 71.700 C 195.835 70.545,196.751 69.600,196.945 69.600 C 197.140 69.600,198.012 68.790,198.884 67.800 C 201.051 65.338,200.810 65.216,207.927 72.400 C 211.413 75.920,214.476 78.800,214.733 78.800 C 214.990 78.800,215.200 79.074,215.200 79.409 C 215.200 79.743,215.650 80.222,216.200 80.473 C 216.750 80.723,217.200 81.117,217.200 81.348 C 217.200 81.578,218.055 82.604,219.100 83.626 C 220.145 84.649,222.753 87.311,224.895 89.543 C 227.037 91.774,228.882 93.600,228.995 93.600 C 229.108 93.600,231.045 95.513,233.300 97.850 C 235.555 100.188,238.440 103.113,239.711 104.350 C 240.982 105.588,243.443 108.040,245.180 109.800 C 253.158 117.886,260.799 125.517,262.135 126.734 C 262.941 127.467,263.600 128.220,263.600 128.407 C 263.600 128.593,263.951 128.857,264.380 128.994 C 264.808 129.130,265.263 129.567,265.389 129.966 C 265.516 130.365,266.895 131.931,268.453 133.446 C 270.011 134.961,273.022 137.969,275.143 140.132 C 277.264 142.295,287.010 152.133,296.800 161.996 C 306.590 171.859,317.196 182.554,320.368 185.764 C 323.541 188.974,326.271 191.600,326.435 191.600 C 326.599 191.600,326.793 191.778,326.867 191.997 C 327.038 192.508,376.443 241.926,377.900 243.044 C 378.505 243.508,379.450 244.024,380.000 244.191 C 380.550 244.358,381.333 244.788,381.741 245.146 C 382.664 245.958,388.128 246.281,389.600 245.612 C 393.152 243.995,395.948 241.822,396.657 240.126 C 397.074 239.128,397.512 238.778,398.598 238.574 C 399.736 238.360,400.000 238.131,400.000 237.355 C 400.000 235.503,397.392 236.975,396.243 239.476 C 395.043 242.088,389.214 245.600,386.080 245.600 C 384.358 245.600,379.842 243.726,378.114 242.295 C 376.187 240.698,372.727 237.447,370.777 235.400 C 368.370 232.874,335.250 199.503,303.197 167.310 C 289.666 153.720,277.138 141.070,275.358 139.200 C 273.578 137.330,271.239 134.978,270.161 133.974 C 269.082 132.970,253.260 117.086,235.000 98.677 C 216.386 79.910,201.494 65.204,201.103 65.202 C 200.713 65.201,191.733 73.925,180.703 85.022 C 169.866 95.925,158.955 106.860,156.455 109.322 C 153.956 111.785,151.076 114.692,150.055 115.781 C 149.035 116.871,138.210 127.815,126.000 140.101 C 113.790 152.387,92.953 173.366,79.697 186.720 C 23.808 243.018,24.051 242.780,21.200 244.116 C 10.974 248.909,0.475 238.331,5.140 227.934 C 6.437 225.044,2.278 229.324,69.400 161.793 C 91.180 139.880,116.200 114.672,125.000 105.775 C 133.800 96.878,153.016 77.546,167.702 62.816 L 194.404 36.033 197.145 35.216 C 203.856 33.218,205.928 34.246,216.200 44.671 C 219.940 48.467,243.197 71.874,267.882 96.686 C 343.155 172.349,355.744 185.025,357.221 186.643 C 358.002 187.499,360.072 189.568,361.821 191.239 C 374.027 202.909,395.654 225.259,396.381 226.955 C 397.277 229.047,400.000 229.833,400.000 228.000 C 400.000 227.351,399.733 227.200,398.590 227.200 C 397.423 227.200,397.109 227.012,396.766 226.111 C 396.258 224.774,396.886 225.461,387.244 215.700 C 382.844 211.245,379.054 207.600,378.822 207.600 C 378.590 207.600,378.400 207.414,378.400 207.187 C 378.400 206.597,359.075 187.200,358.488 187.200 C 358.219 187.200,358.000 186.998,358.000 186.752 C 358.000 186.167,360.465 188.661,262.800 90.416 C 201.471 28.721,208.598 35.707,206.244 34.980 C 205.340 34.700,203.931 34.186,203.113 33.836 C 201.276 33.050,200.131 33.052,198.671 33.844 M197.600 100.544 C 196.830 100.852,195.570 101.333,194.800 101.612 C 194.030 101.891,193.078 102.452,192.684 102.860 C 192.291 103.267,191.735 103.600,191.449 103.600 C 191.162 103.600,188.065 106.593,184.564 110.251 C 181.064 113.910,177.300 117.843,176.200 118.992 C 175.100 120.140,174.002 121.332,173.760 121.640 C 173.518 121.948,172.708 122.782,171.960 123.494 C 171.212 124.206,168.980 126.507,167.000 128.609 C 165.020 130.710,160.880 135.017,157.800 138.180 C 154.720 141.343,150.065 146.152,147.454 148.865 C 144.844 151.579,140.794 155.785,138.454 158.212 C 129.339 167.665,127.600 169.547,127.600 169.966 C 127.600 170.205,127.351 170.400,127.046 170.400 C 126.741 170.400,126.227 170.805,125.902 171.300 C 125.578 171.795,124.207 173.330,122.856 174.710 C 121.505 176.091,120.400 177.384,120.400 177.583 C 120.400 177.783,120.040 178.060,119.600 178.200 C 119.160 178.340,118.800 178.716,118.800 179.037 C 118.800 179.357,118.350 179.791,117.800 180.000 C 117.250 180.209,116.800 180.553,116.800 180.765 C 116.800 180.976,113.065 184.922,108.500 189.533 C 100.202 197.914,98.891 199.271,89.686 209.004 C 86.984 211.862,84.419 214.566,83.986 215.014 C 83.554 215.462,83.200 216.035,83.200 216.287 C 83.200 216.540,82.840 216.860,82.400 217.000 C 81.960 217.140,81.600 217.405,81.600 217.591 C 81.600 217.776,79.080 220.461,76.000 223.558 C 72.920 226.655,70.400 229.302,70.400 229.440 C 70.400 229.794,67.513 232.400,67.122 232.400 C 66.945 232.400,66.800 232.594,66.800 232.830 C 66.800 233.067,65.559 234.462,64.043 235.930 C 62.527 237.399,60.907 239.357,60.444 240.281 L 59.603 241.963 59.633 301.224 C 59.659 351.003,59.754 360.781,60.227 362.342 C 60.538 363.364,60.793 364.578,60.796 365.040 C 60.801 366.126,62.614 369.606,63.621 370.464 C 64.049 370.829,64.400 371.291,64.400 371.489 C 64.400 372.840,70.858 376.400,73.308 376.400 C 74.103 376.400,74.862 376.577,74.996 376.794 C 75.472 377.563,151.450 377.122,152.226 376.345 C 152.826 375.746,152.886 370.608,152.940 314.936 L 153.000 254.180 153.900 253.036 C 154.395 252.407,154.800 251.662,154.800 251.380 C 154.800 250.562,158.823 246.000,159.544 246.000 C 159.791 246.000,160.218 245.640,160.493 245.200 C 160.768 244.760,161.194 244.400,161.440 244.400 C 161.687 244.400,162.588 243.905,163.444 243.300 L 165.000 242.200 200.602 242.200 L 236.204 242.200 238.602 243.400 C 239.921 244.060,241.058 244.729,241.129 244.887 C 241.200 245.045,242.145 245.826,243.229 246.621 C 244.313 247.417,245.200 248.301,245.200 248.585 C 245.200 248.869,245.465 249.322,245.788 249.590 C 246.112 249.859,246.945 251.186,247.639 252.539 L 248.900 255.000 248.961 315.451 C 249.011 365.464,249.114 376.014,249.559 376.551 C 250.175 377.293,311.591 377.513,324.126 376.819 C 332.203 376.372,333.318 375.891,338.300 370.708 C 338.795 370.193,339.200 369.636,339.200 369.470 C 339.200 369.304,339.554 368.680,339.986 368.084 C 342.127 365.131,342.210 362.339,342.205 293.591 C 342.201 245.641,342.127 238.893,341.600 238.259 C 340.337 236.740,336.942 233.106,335.640 231.880 C 334.892 231.176,334.082 230.374,333.840 230.097 C 333.598 229.821,330.925 227.066,327.900 223.975 C 324.875 220.884,322.400 218.280,322.400 218.188 C 322.400 217.826,317.659 213.200,317.288 213.200 C 317.071 213.200,316.799 212.840,316.684 212.400 C 316.569 211.960,316.200 211.600,315.864 211.600 C 315.529 211.600,315.153 211.285,315.030 210.900 C 314.906 210.515,314.261 209.660,313.596 209.000 C 312.932 208.340,312.166 207.564,311.894 207.275 C 311.622 206.986,310.140 205.443,308.600 203.845 C 307.060 202.248,305.214 200.234,304.497 199.371 C 302.661 197.157,302.584 197.073,301.749 196.365 C 301.337 196.015,297.400 191.995,293.000 187.432 C 288.600 182.869,282.885 176.958,280.300 174.297 C 277.715 171.637,275.600 169.323,275.600 169.157 C 275.600 168.990,275.259 168.746,274.843 168.614 C 274.427 168.482,273.994 168.019,273.881 167.587 C 273.767 167.154,273.400 166.800,273.064 166.800 C 272.729 166.800,272.343 166.449,272.206 166.020 C 272.070 165.592,271.608 165.130,271.180 164.994 C 270.751 164.857,270.400 164.497,270.400 164.193 C 270.400 163.889,270.151 163.496,269.846 163.320 C 269.542 163.144,268.169 161.740,266.796 160.200 C 265.423 158.660,262.567 155.579,260.450 153.353 C 258.332 151.127,256.397 149.057,256.149 148.753 C 255.900 148.449,254.280 146.834,252.549 145.163 C 250.817 143.493,246.970 139.544,244.000 136.387 C 241.030 133.230,236.485 128.532,233.900 125.947 C 231.315 123.362,229.200 121.132,229.200 120.991 C 229.200 120.851,227.175 118.690,224.700 116.189 C 222.225 113.688,219.396 110.719,218.414 109.591 C 216.505 107.399,210.339 102.000,209.745 102.000 C 209.549 102.000,208.671 101.614,207.794 101.142 C 205.746 100.039,199.740 99.687,197.600 100.544 M205.680 101.363 C 210.700 102.695,210.590 102.599,228.800 121.601 C 233.750 126.767,238.970 132.179,240.400 133.629 C 241.830 135.080,243.788 137.151,244.752 138.233 C 245.715 139.315,249.855 143.622,253.952 147.803 C 258.048 151.985,264.100 158.268,267.400 161.765 C 270.700 165.261,274.660 169.420,276.200 171.007 C 277.740 172.593,281.965 177.021,285.588 180.846 C 289.212 184.671,295.152 190.860,298.788 194.600 C 302.425 198.340,307.187 203.290,309.370 205.600 C 313.344 209.804,326.446 223.443,332.754 229.944 C 334.599 231.845,337.258 234.633,338.662 236.141 L 341.217 238.881 341.108 301.541 L 341.000 364.200 339.644 366.947 C 337.833 370.615,334.885 373.456,331.336 374.956 L 328.600 376.111 289.533 376.156 C 268.047 376.180,250.317 376.050,250.133 375.867 C 249.950 375.683,249.710 348.143,249.600 314.667 L 249.400 253.800 248.220 251.800 C 247.572 250.700,246.892 249.738,246.710 249.663 C 246.528 249.588,246.031 248.845,245.607 248.013 C 245.182 247.180,244.242 246.119,243.517 245.654 C 242.793 245.188,241.315 244.232,240.232 243.529 C 236.752 241.266,236.160 241.231,201.033 241.215 C 165.623 241.198,165.128 241.227,161.600 243.522 C 158.630 245.453,155.259 248.949,153.800 251.611 L 152.600 253.800 152.494 314.456 C 152.398 369.070,152.325 375.165,151.758 375.635 C 151.015 376.252,81.667 376.546,75.371 375.959 C 69.209 375.385,64.761 372.229,62.096 366.540 L 61.000 364.200 60.893 302.801 C 60.811 256.116,60.899 241.127,61.260 240.255 C 61.521 239.625,63.369 237.443,65.367 235.406 C 72.726 227.907,81.845 218.474,83.391 216.762 C 84.267 215.793,87.147 212.749,89.791 209.997 C 92.436 207.245,97.210 202.232,100.400 198.857 C 103.590 195.481,108.720 190.158,111.800 187.027 C 116.192 182.563,128.748 169.504,132.400 165.603 C 135.321 162.483,155.627 141.336,161.000 135.819 C 162.540 134.238,167.130 129.455,171.200 125.191 C 183.350 112.462,191.711 104.000,192.137 104.000 C 192.357 104.000,192.885 103.685,193.310 103.300 C 195.566 101.256,201.675 100.299,205.680 101.363 " stroke="none" fill="#999999" fill-rule="evenodd"></path><path id="path3" d="M197.400 35.266 C 194.465 36.061,198.556 32.059,127.252 103.880 C 114.190 117.036,83.207 148.230,58.400 173.200 C 2.098 229.873,6.532 225.299,5.294 227.976 C 0.660 238.000,11.156 248.605,21.011 243.856 C 24.292 242.276,32.334 234.278,149.520 116.062 C 194.998 70.183,200.050 65.200,201.076 65.200 C 201.869 65.200,206.815 69.964,224.739 87.989 C 259.527 122.973,319.534 183.399,366.000 230.236 C 374.937 239.244,379.668 243.600,380.516 243.600 C 380.789 243.600,381.722 243.981,382.591 244.446 C 386.422 246.500,394.698 243.338,396.028 239.313 C 396.480 237.947,398.479 236.000,399.431 236.000 C 399.878 236.000,400.000 235.274,400.000 232.600 L 400.000 229.200 398.586 229.200 C 397.294 229.200,397.106 229.047,396.411 227.425 C 395.992 226.449,395.324 225.306,394.925 224.887 C 394.232 224.158,364.728 194.436,358.903 188.600 C 357.366 187.060,345.210 174.820,331.890 161.400 C 196.268 24.762,207.138 35.315,201.687 34.992 C 200.209 34.904,198.280 35.027,197.400 35.266 M207.484 37.425 C 208.538 38.276,209.497 39.108,209.616 39.274 C 209.735 39.440,231.643 61.496,258.302 88.287 C 295.466 125.638,334.245 164.689,345.902 176.502 C 346.066 176.669,348.540 179.137,351.400 181.987 C 354.260 184.837,357.590 188.255,358.800 189.584 C 360.010 190.912,361.132 192.000,361.294 192.000 C 361.456 192.000,364.269 194.745,367.545 198.100 C 377.277 208.068,377.569 208.355,378.401 208.800 C 378.840 209.036,379.200 209.492,379.200 209.814 C 379.200 210.136,379.376 210.400,379.590 210.400 C 379.805 210.400,380.570 211.056,381.290 211.858 C 382.011 212.660,385.488 216.232,389.018 219.794 C 393.973 224.796,395.544 226.634,395.911 227.860 C 396.172 228.733,396.840 229.874,397.393 230.394 C 398.703 231.624,398.709 233.425,397.410 235.187 C 396.865 235.925,396.207 237.175,395.947 237.965 C 395.331 239.835,391.909 243.053,390.193 243.375 C 389.471 243.510,388.660 243.886,388.391 244.211 C 388.086 244.579,387.188 244.800,386.000 244.800 C 384.812 244.800,383.914 244.579,383.609 244.211 C 383.340 243.886,382.479 243.501,381.696 243.354 C 379.862 243.010,380.604 243.715,354.851 217.873 C 342.833 205.813,317.565 180.457,298.700 161.527 C 279.835 142.596,264.400 126.949,264.400 126.754 C 264.400 126.559,264.239 126.400,264.042 126.400 C 263.652 126.400,260.167 122.988,255.882 118.411 C 254.388 116.814,252.408 114.878,251.482 114.109 C 250.557 113.340,249.737 112.542,249.660 112.336 C 249.449 111.771,246.727 109.200,246.339 109.200 C 246.152 109.200,246.000 108.926,246.000 108.590 C 246.000 108.255,245.550 107.809,245.000 107.600 C 244.450 107.391,244.000 107.046,244.000 106.833 C 244.000 106.310,234.108 96.400,233.587 96.400 C 233.360 96.400,233.059 96.085,232.917 95.700 C 232.775 95.315,232.016 94.413,231.230 93.694 C 230.443 92.976,229.674 92.256,229.520 92.094 C 218.936 80.981,201.894 64.400,201.054 64.400 C 200.215 64.400,183.691 80.297,179.760 84.886 C 179.518 85.169,178.708 85.956,177.960 86.637 C 177.212 87.317,175.506 89.027,174.169 90.437 C 172.832 91.846,171.122 93.557,170.369 94.238 C 169.616 94.919,168.421 96.089,167.714 96.838 C 166.263 98.375,165.954 98.682,164.028 100.503 C 163.273 101.216,162.112 102.388,161.449 103.106 C 160.785 103.824,146.733 117.971,130.221 134.544 C 103.907 160.955,55.557 209.644,46.104 219.251 C 44.291 221.093,41.771 223.623,40.504 224.873 C 39.237 226.124,35.834 229.544,32.943 232.473 C 25.602 239.910,22.644 242.486,20.474 243.326 C 19.443 243.726,18.429 244.221,18.220 244.426 C 17.712 244.926,14.912 244.905,14.600 244.400 C 14.464 244.180,13.531 243.793,12.527 243.540 C 9.594 242.801,6.369 239.377,5.210 235.771 L 4.300 232.941 5.264 230.161 C 6.481 226.647,6.820 226.189,12.426 220.497 C 14.970 217.914,17.169 215.485,17.313 215.100 C 17.457 214.715,17.851 214.400,18.187 214.400 C 18.524 214.400,18.800 214.241,18.800 214.047 C 18.800 213.587,21.987 210.400,22.447 210.400 C 22.641 210.400,22.800 210.163,22.800 209.874 C 22.800 209.585,23.608 208.743,24.596 208.003 C 25.583 207.263,26.495 206.330,26.623 205.929 C 26.750 205.528,27.034 205.200,27.254 205.200 C 27.776 205.200,32.400 200.532,32.400 200.005 C 32.400 199.782,32.601 199.600,32.846 199.600 C 33.324 199.600,36.000 196.841,36.000 196.349 C 36.000 196.187,36.360 195.940,36.800 195.800 C 37.240 195.660,37.600 195.332,37.600 195.071 C 37.600 194.810,38.403 193.967,39.385 193.198 C 40.367 192.429,41.177 191.690,41.185 191.554 C 41.193 191.419,54.205 178.249,70.100 162.287 C 108.835 123.387,107.241 124.993,108.600 123.531 C 109.260 122.822,110.940 121.152,112.333 119.821 C 113.727 118.489,115.797 116.432,116.933 115.250 C 119.415 112.667,158.159 73.666,178.705 53.067 C 197.696 34.026,195.635 35.578,201.684 35.760 C 205.526 35.875,205.587 35.893,207.484 37.425 M198.000 101.600 C 196.790 102.011,195.524 102.359,195.187 102.374 C 193.844 102.431,185.504 110.552,167.600 129.231 C 163.530 133.478,158.490 138.692,156.400 140.817 C 154.310 142.943,149.720 147.723,146.200 151.440 C 138.652 159.410,134.365 163.911,130.800 167.609 C 129.370 169.093,124.960 173.683,121.000 177.809 C 117.040 181.935,111.730 187.426,109.200 190.010 C 106.670 192.595,102.350 197.100,99.600 200.022 C 94.946 204.967,88.511 211.728,83.800 216.622 C 82.700 217.765,78.110 222.538,73.600 227.228 C 69.090 231.919,64.575 236.576,63.567 237.578 C 62.559 238.580,61.607 239.748,61.452 240.173 C 61.091 241.159,61.098 362.192,61.459 363.995 C 62.311 368.255,65.211 371.850,69.751 374.277 L 72.600 375.800 111.239 375.913 C 136.277 375.987,150.248 375.886,150.929 375.627 L 151.980 375.227 152.090 314.888 L 152.200 254.548 153.513 252.043 C 155.034 249.142,155.256 248.840,157.400 246.753 C 160.224 244.003,160.679 243.600,160.958 243.600 C 161.109 243.600,161.720 243.242,162.316 242.805 C 162.912 242.367,164.390 241.821,165.600 241.590 C 168.876 240.966,232.587 240.959,236.000 241.583 C 238.844 242.102,244.949 245.780,245.418 247.256 C 245.548 247.668,246.059 248.498,246.552 249.102 C 247.045 249.706,247.978 251.100,248.625 252.200 L 249.800 254.200 249.900 314.599 C 249.955 347.819,250.060 375.179,250.133 375.399 C 250.221 375.663,263.697 375.800,289.633 375.800 L 329.000 375.800 330.942 374.904 C 333.784 373.592,336.201 371.940,336.944 370.800 C 339.189 367.353,339.998 365.872,340.373 364.523 C 340.661 363.483,340.796 343.303,340.798 300.890 L 340.800 238.780 338.477 236.290 C 337.199 234.920,334.904 232.525,333.377 230.967 C 331.850 229.408,328.905 226.348,326.833 224.167 C 324.760 221.985,320.710 217.763,317.833 214.785 C 314.955 211.807,310.810 207.487,308.622 205.185 C 306.433 202.883,301.843 198.116,298.422 194.591 C 295.000 191.065,289.680 185.502,286.600 182.227 C 283.520 178.952,280.031 175.266,278.846 174.036 C 277.661 172.806,273.431 168.380,269.447 164.200 C 265.462 160.020,259.297 153.630,255.747 150.000 C 252.197 146.370,247.966 141.972,246.346 140.227 C 244.726 138.482,242.140 135.773,240.600 134.207 C 239.060 132.642,234.920 128.334,231.400 124.635 C 211.284 103.497,210.315 102.647,204.921 101.443 C 201.370 100.650,200.757 100.664,198.000 101.600 M204.800 102.212 C 206.743 102.553,208.664 103.150,209.284 103.605 C 209.880 104.042,210.508 104.400,210.681 104.400 C 210.994 104.400,223.547 117.178,225.800 119.792 C 226.460 120.557,227.231 121.187,227.513 121.192 C 227.794 121.196,228.145 121.515,228.292 121.900 C 228.655 122.848,230.970 125.200,231.540 125.200 C 231.793 125.200,232.000 125.389,232.000 125.619 C 232.000 125.849,232.815 126.865,233.812 127.876 C 234.808 128.887,235.753 129.936,235.912 130.208 C 236.263 130.811,246.885 141.931,254.800 149.982 C 261.950 157.255,269.986 165.622,282.296 178.609 C 288.307 184.951,306.192 203.605,307.216 204.600 C 307.442 204.820,308.206 205.612,308.914 206.360 C 309.621 207.108,310.434 207.918,310.719 208.160 C 311.313 208.663,311.586 208.952,312.989 210.558 C 313.545 211.196,314.000 211.858,314.000 212.031 C 314.000 212.205,314.360 212.460,314.800 212.600 C 315.240 212.740,315.600 213.105,315.600 213.413 C 315.600 213.720,315.949 214.158,316.375 214.387 C 317.595 215.039,321.859 219.530,323.779 222.184 C 324.207 222.777,325.062 223.522,325.679 223.841 C 326.296 224.160,326.800 224.614,326.800 224.850 C 326.800 225.086,327.295 225.772,327.900 226.374 C 328.505 226.976,331.520 230.022,334.600 233.143 L 340.200 238.818 340.058 301.649 L 339.916 364.479 338.728 366.740 C 338.074 367.983,337.311 369.270,337.031 369.600 C 336.751 369.930,336.410 370.515,336.273 370.900 C 336.137 371.285,335.777 371.600,335.475 371.600 C 335.172 371.600,334.598 371.960,334.200 372.400 C 333.802 372.840,333.279 373.202,333.038 373.204 C 332.797 373.206,331.635 373.657,330.456 374.206 L 328.312 375.204 289.715 375.228 C 268.487 375.241,251.044 375.177,250.952 375.085 C 250.860 374.993,250.790 348.224,250.796 315.598 C 250.805 272.247,250.685 255.891,250.351 254.839 C 249.448 251.990,248.621 250.293,247.607 249.208 C 247.040 248.600,246.377 247.667,246.134 247.134 C 245.362 245.440,239.977 241.766,237.712 241.389 C 236.881 241.250,235.521 240.881,234.692 240.568 C 232.423 239.713,168.658 239.722,166.714 240.578 C 165.991 240.896,164.750 241.259,163.955 241.386 C 163.160 241.512,162.187 241.972,161.793 242.408 C 161.399 242.844,160.835 243.200,160.541 243.200 C 160.247 243.200,159.782 243.560,159.507 244.000 C 159.232 244.440,158.834 244.800,158.623 244.800 C 158.092 244.800,155.600 247.259,155.600 247.782 C 155.600 248.016,155.240 248.432,154.800 248.707 C 154.360 248.982,154.000 249.393,154.000 249.620 C 154.000 249.847,153.639 250.521,153.197 251.119 C 151.303 253.680,151.266 254.976,151.335 316.896 C 151.389 364.784,151.308 374.826,150.867 374.996 C 149.885 375.373,72.574 375.213,72.180 374.833 C 71.840 374.505,69.845 373.372,66.700 371.719 C 66.095 371.401,65.600 370.956,65.600 370.728 C 65.600 370.501,65.150 369.781,64.600 369.127 C 64.050 368.473,63.600 367.707,63.600 367.423 C 63.600 367.140,63.195 366.393,62.700 365.764 L 61.800 364.620 61.681 304.010 C 61.616 270.674,61.670 242.647,61.802 241.726 C 62.061 239.916,61.439 240.632,73.300 228.466 C 76.325 225.363,78.800 222.651,78.800 222.439 C 78.800 222.227,79.151 221.943,79.580 221.806 C 80.008 221.670,80.470 221.208,80.606 220.780 C 80.743 220.351,81.112 220.000,81.427 220.000 C 81.742 220.000,82.000 219.817,82.000 219.592 C 82.000 219.368,84.525 216.641,87.611 213.533 C 90.697 210.424,93.782 207.233,94.467 206.441 C 95.152 205.648,98.308 202.300,101.480 199.000 C 104.653 195.700,109.623 190.518,112.524 187.485 C 115.426 184.452,119.510 180.196,121.600 178.028 C 123.690 175.859,128.640 170.707,132.600 166.578 C 136.560 162.449,140.610 158.227,141.600 157.197 C 142.590 156.166,145.360 153.271,147.755 150.762 C 150.150 148.253,153.615 144.642,155.455 142.737 C 157.295 140.832,158.800 139.077,158.800 138.837 C 158.800 138.597,159.074 138.400,159.409 138.400 C 159.743 138.400,160.222 137.950,160.473 137.400 C 160.723 136.850,161.175 136.400,161.477 136.400 C 161.778 136.400,162.143 136.085,162.286 135.700 C 162.430 135.315,163.189 134.422,163.974 133.715 C 165.964 131.923,165.727 132.163,170.600 126.991 C 178.834 118.253,192.627 104.400,193.094 104.400 C 193.351 104.400,193.718 104.118,193.910 103.774 C 194.189 103.276,197.468 102.321,201.200 101.651 C 201.310 101.631,202.930 101.883,204.800 102.212 " stroke="none" fill="#6c6c6c" fill-rule="evenodd"></path><path id="path4" d="M199.900 34.682 C 200.395 34.778,201.205 34.778,201.700 34.682 C 202.195 34.587,201.790 34.509,200.800 34.509 C 199.810 34.509,199.405 34.587,199.900 34.682 M194.122 36.629 L 193.000 37.658 194.300 36.754 C 195.015 36.257,195.600 35.793,195.600 35.725 C 195.600 35.409,195.158 35.680,194.122 36.629 M210.400 39.000 C 211.146 39.770,211.847 40.400,211.957 40.400 C 212.067 40.400,211.546 39.770,210.800 39.000 C 210.054 38.230,209.353 37.600,209.243 37.600 C 209.133 37.600,209.654 38.230,210.400 39.000 M189.775 40.500 L 188.600 41.800 189.900 40.625 C 191.112 39.530,191.384 39.200,191.075 39.200 C 191.006 39.200,190.421 39.785,189.775 40.500 M212.000 40.925 C 212.000 40.994,212.585 41.579,213.300 42.225 L 214.600 43.400 213.425 42.100 C 212.330 40.888,212.000 40.616,212.000 40.925 M216.800 45.800 C 217.546 46.570,218.247 47.200,218.357 47.200 C 218.467 47.200,217.946 46.570,217.200 45.800 C 216.454 45.030,215.753 44.400,215.643 44.400 C 215.533 44.400,216.054 45.030,216.800 45.800 M220.200 49.200 C 221.059 50.080,221.852 50.800,221.962 50.800 C 222.072 50.800,221.459 50.080,220.600 49.200 C 219.741 48.320,218.948 47.600,218.838 47.600 C 218.728 47.600,219.341 48.320,220.200 49.200 M171.794 58.900 L 166.600 64.200 171.900 59.006 C 174.815 56.149,177.200 53.764,177.200 53.706 C 177.200 53.419,176.619 53.977,171.794 58.900 M227.800 56.800 C 228.659 57.680,229.452 58.400,229.562 58.400 C 229.672 58.400,229.059 57.680,228.200 56.800 C 227.341 55.920,226.548 55.200,226.438 55.200 C 226.328 55.200,226.941 55.920,227.800 56.800 M242.400 71.400 C 249.327 78.330,255.085 84.000,255.195 84.000 C 255.305 84.000,249.727 78.330,242.800 71.400 C 235.873 64.470,230.115 58.800,230.005 58.800 C 229.895 58.800,235.473 64.470,242.400 71.400 M160.591 70.100 L 157.400 73.400 160.700 70.209 C 163.765 67.246,164.182 66.800,163.891 66.800 C 163.830 66.800,162.345 68.285,160.591 70.100 M208.800 72.200 C 209.546 72.970,210.247 73.600,210.357 73.600 C 210.467 73.600,209.946 72.970,209.200 72.200 C 208.454 71.430,207.753 70.800,207.643 70.800 C 207.533 70.800,208.054 71.430,208.800 72.200 M191.186 74.300 L 189.000 76.600 191.300 74.414 C 193.437 72.382,193.783 72.000,193.486 72.000 C 193.424 72.000,192.389 73.035,191.186 74.300 M153.178 77.500 L 151.800 79.000 153.300 77.622 C 154.125 76.863,154.800 76.188,154.800 76.122 C 154.800 75.816,154.462 76.104,153.178 77.500 M145.794 84.900 L 140.600 90.200 145.900 85.006 C 150.823 80.181,151.381 79.600,151.094 79.600 C 151.036 79.600,148.651 81.985,145.794 84.900 M173.396 92.100 L 166.200 99.400 173.500 92.204 C 180.282 85.519,180.981 84.800,180.696 84.800 C 180.639 84.800,177.354 88.085,173.396 92.100 M257.400 86.400 C 258.259 87.280,259.052 88.000,259.162 88.000 C 259.272 88.000,258.659 87.280,257.800 86.400 C 256.941 85.520,256.148 84.800,256.038 84.800 C 255.928 84.800,256.541 85.520,257.400 86.400 M264.800 93.800 C 267.543 96.550,269.878 98.800,269.988 98.800 C 270.098 98.800,267.943 96.550,265.200 93.800 C 262.457 91.050,260.122 88.800,260.012 88.800 C 259.902 88.800,262.057 91.050,264.800 93.800 M137.588 93.100 L 135.000 95.800 137.700 93.212 C 140.208 90.807,140.583 90.400,140.288 90.400 C 140.227 90.400,139.012 91.615,137.588 93.100 M128.388 102.300 L 125.800 105.000 128.500 102.412 C 131.008 100.007,131.383 99.600,131.088 99.600 C 131.027 99.600,129.812 100.815,128.388 102.300 M236.400 100.110 C 236.400 100.171,237.795 101.566,239.500 103.210 L 242.600 106.200 239.610 103.100 C 236.833 100.221,236.400 99.817,236.400 100.110 M162.575 102.900 L 161.400 104.200 162.700 103.025 C 163.912 101.930,164.184 101.600,163.875 101.600 C 163.806 101.600,163.221 102.185,162.575 102.900 M185.795 110.100 L 179.800 116.200 185.986 110.200 C 189.388 106.900,192.253 104.155,192.353 104.100 C 192.452 104.045,192.366 104.000,192.162 104.000 C 191.957 104.000,189.092 106.745,185.795 110.100 M123.775 106.900 L 122.600 108.200 123.900 107.025 C 125.112 105.930,125.384 105.600,125.075 105.600 C 125.006 105.600,124.421 106.185,123.775 106.900 M215.400 108.000 C 216.706 109.320,217.865 110.400,217.975 110.400 C 218.085 110.400,217.106 109.320,215.800 108.000 C 214.494 106.680,213.335 105.600,213.225 105.600 C 213.115 105.600,214.094 106.680,215.400 108.000 M155.392 110.100 L 151.400 114.200 155.500 110.208 C 159.308 106.499,159.782 106.000,159.492 106.000 C 159.433 106.000,157.588 107.845,155.392 110.100 M115.178 115.900 L 113.800 117.400 115.300 116.022 C 116.125 115.263,116.800 114.588,116.800 114.522 C 116.800 114.216,116.462 114.504,115.178 115.900 M254.400 118.200 C 256.481 120.290,258.274 122.000,258.384 122.000 C 258.494 122.000,256.881 120.290,254.800 118.200 C 252.719 116.110,250.926 114.400,250.816 114.400 C 250.706 114.400,252.319 116.110,254.400 118.200 M226.600 119.600 C 227.683 120.700,228.660 121.600,228.770 121.600 C 228.880 121.600,228.083 120.700,227.000 119.600 C 225.917 118.500,224.940 117.600,224.830 117.600 C 224.720 117.600,225.517 118.500,226.600 119.600 M146.378 119.500 L 145.000 121.000 146.500 119.622 C 147.896 118.338,148.184 118.000,147.878 118.000 C 147.812 118.000,147.137 118.675,146.378 119.500 M106.985 124.100 L 105.000 126.200 107.100 124.215 C 109.051 122.371,109.383 122.000,109.085 122.000 C 109.022 122.000,108.077 122.945,106.985 124.100 M292.800 122.125 C 292.800 122.194,293.385 122.779,294.100 123.425 L 295.400 124.600 294.225 123.300 C 293.130 122.088,292.800 121.816,292.800 122.125 M137.614 128.190 L 135.028 131.000 137.796 128.315 C 139.318 126.838,140.481 125.573,140.381 125.505 C 140.282 125.436,139.036 126.644,137.614 128.190 M99.992 131.100 L 96.200 135.000 100.100 131.208 C 103.722 127.686,104.182 127.200,103.892 127.200 C 103.833 127.200,102.078 128.955,99.992 131.100 M299.400 128.800 C 300.259 129.680,301.052 130.400,301.162 130.400 C 301.272 130.400,300.659 129.680,299.800 128.800 C 298.941 127.920,298.148 127.200,298.038 127.200 C 297.928 127.200,298.541 127.920,299.400 128.800 M165.978 130.700 L 164.600 132.200 166.100 130.822 C 166.925 130.063,167.600 129.388,167.600 129.322 C 167.600 129.016,167.262 129.304,165.978 130.700 M302.000 131.325 C 302.000 131.394,302.585 131.979,303.300 132.625 L 304.600 133.800 303.425 132.500 C 302.330 131.288,302.000 131.016,302.000 131.325 M238.000 131.725 C 238.000 131.794,238.585 132.379,239.300 133.025 L 240.600 134.200 239.425 132.900 C 238.330 131.688,238.000 131.416,238.000 131.725 M131.200 134.600 C 130.228 135.590,129.523 136.400,129.633 136.400 C 129.743 136.400,130.628 135.590,131.600 134.600 C 132.572 133.610,133.277 132.800,133.167 132.800 C 133.057 132.800,132.172 133.610,131.200 134.600 M91.393 139.700 L 87.000 144.200 91.500 139.807 C 93.975 137.391,96.000 135.366,96.000 135.307 C 96.000 135.018,95.474 135.520,91.393 139.700 M307.200 136.510 C 307.200 136.571,308.595 137.966,310.300 139.610 L 313.400 142.600 310.410 139.500 C 307.633 136.621,307.200 136.217,307.200 136.510 M123.594 142.300 L 118.200 147.800 123.700 142.406 C 128.809 137.394,129.381 136.800,129.094 136.800 C 129.036 136.800,126.561 139.275,123.594 142.300 M244.400 138.200 C 245.146 138.970,245.847 139.600,245.957 139.600 C 246.067 139.600,245.546 138.970,244.800 138.200 C 244.054 137.430,243.353 136.800,243.243 136.800 C 243.133 136.800,243.654 137.430,244.400 138.200 M315.800 145.200 C 317.106 146.520,318.265 147.600,318.375 147.600 C 318.485 147.600,317.506 146.520,316.200 145.200 C 314.894 143.880,313.735 142.800,313.625 142.800 C 313.515 142.800,314.494 143.880,315.800 145.200 M251.800 146.000 C 252.659 146.880,253.452 147.600,253.562 147.600 C 253.672 147.600,253.059 146.880,252.200 146.000 C 251.341 145.120,250.548 144.400,250.438 144.400 C 250.328 144.400,250.941 145.120,251.800 146.000 M281.600 145.800 C 282.346 146.570,283.047 147.200,283.157 147.200 C 283.267 147.200,282.746 146.570,282.000 145.800 C 281.254 145.030,280.553 144.400,280.443 144.400 C 280.333 144.400,280.854 145.030,281.600 145.800 M82.791 148.300 L 79.400 151.800 82.900 148.409 C 86.151 145.259,86.582 144.800,86.291 144.800 C 86.231 144.800,84.656 146.375,82.791 148.300 M110.596 155.300 L 103.400 162.600 110.700 155.404 C 117.482 148.719,118.181 148.000,117.896 148.000 C 117.839 148.000,114.554 151.285,110.596 155.300 M253.639 148.100 C 253.735 148.155,254.620 148.920,255.606 149.800 L 257.400 151.400 255.819 149.700 C 254.949 148.765,254.064 148.000,253.852 148.000 C 253.640 148.000,253.544 148.045,253.639 148.100 M289.400 153.600 C 292.254 156.460,294.678 158.800,294.788 158.800 C 294.898 158.800,292.654 156.460,289.800 153.600 C 286.946 150.740,284.522 148.400,284.412 148.400 C 284.302 148.400,286.546 150.740,289.400 153.600 M324.000 153.400 C 325.860 155.270,327.472 156.800,327.582 156.800 C 327.692 156.800,326.260 155.270,324.400 153.400 C 322.540 151.530,320.928 150.000,320.818 150.000 C 320.708 150.000,322.140 151.530,324.000 153.400 M259.400 153.600 C 260.259 154.480,261.052 155.200,261.162 155.200 C 261.272 155.200,260.659 154.480,259.800 153.600 C 258.941 152.720,258.148 152.000,258.038 152.000 C 257.928 152.000,258.541 152.720,259.400 153.600 M77.178 153.900 L 75.800 155.400 77.300 154.022 C 78.696 152.738,78.984 152.400,78.678 152.400 C 78.612 152.400,77.937 153.075,77.178 153.900 M142.181 155.300 L 140.600 157.000 142.300 155.419 C 143.881 153.948,144.184 153.600,143.881 153.600 C 143.816 153.600,143.051 154.365,142.181 155.300 M263.200 157.800 C 263.946 158.570,264.647 159.200,264.757 159.200 C 264.867 159.200,264.346 158.570,263.600 157.800 C 262.854 157.030,262.153 156.400,262.043 156.400 C 261.933 156.400,262.454 157.030,263.200 157.800 M71.775 159.300 L 70.600 160.600 71.900 159.425 C 73.112 158.330,73.384 158.000,73.075 158.000 C 73.006 158.000,72.421 158.585,71.775 159.300 M328.800 158.125 C 328.800 158.194,329.385 158.779,330.100 159.425 L 331.400 160.600 330.225 159.300 C 329.130 158.088,328.800 157.816,328.800 158.125 M136.400 161.400 C 134.761 163.050,133.510 164.400,133.620 164.400 C 133.730 164.400,135.161 163.050,136.800 161.400 C 138.439 159.750,139.690 158.400,139.580 158.400 C 139.470 158.400,138.039 159.750,136.400 161.400 M304.000 168.200 C 308.946 173.150,313.083 177.200,313.193 177.200 C 313.303 177.200,309.346 173.150,304.400 168.200 C 299.454 163.250,295.317 159.200,295.207 159.200 C 295.097 159.200,299.054 163.250,304.000 168.200 M333.600 163.000 C 334.346 163.770,335.047 164.400,335.157 164.400 C 335.267 164.400,334.746 163.770,334.000 163.000 C 333.254 162.230,332.553 161.600,332.443 161.600 C 332.333 161.600,332.854 162.230,333.600 163.000 M271.400 166.400 C 272.483 167.500,273.460 168.400,273.570 168.400 C 273.680 168.400,272.883 167.500,271.800 166.400 C 270.717 165.300,269.740 164.400,269.630 164.400 C 269.520 164.400,270.317 165.300,271.400 166.400 M126.400 171.800 C 125.428 172.790,124.723 173.600,124.833 173.600 C 124.943 173.600,125.828 172.790,126.800 171.800 C 127.772 170.810,128.477 170.000,128.367 170.000 C 128.257 170.000,127.372 170.810,126.400 171.800 M342.000 171.325 C 342.000 171.394,342.585 171.979,343.300 172.625 L 344.600 173.800 343.425 172.500 C 342.330 171.288,342.000 171.016,342.000 171.325 M57.978 173.500 L 56.600 175.000 58.100 173.622 C 59.496 172.338,59.784 172.000,59.478 172.000 C 59.412 172.000,58.737 172.675,57.978 173.500 M282.600 178.000 C 283.683 179.100,284.660 180.000,284.770 180.000 C 284.880 180.000,284.083 179.100,283.000 178.000 C 281.917 176.900,280.940 176.000,280.830 176.000 C 280.720 176.000,281.517 176.900,282.600 178.000 M320.600 184.800 C 324.555 188.760,327.882 192.000,327.992 192.000 C 328.102 192.000,324.955 188.760,321.000 184.800 C 317.045 180.840,313.718 177.600,313.608 177.600 C 313.498 177.600,316.645 180.840,320.600 184.800 M48.581 182.900 L 47.000 184.600 48.700 183.019 C 49.635 182.149,50.400 181.384,50.400 181.319 C 50.400 181.016,50.052 181.319,48.581 182.900 M290.000 185.800 C 291.195 187.010,292.263 188.000,292.373 188.000 C 292.483 188.000,291.595 187.010,290.400 185.800 C 289.205 184.590,288.137 183.600,288.027 183.600 C 287.917 183.600,288.805 184.590,290.000 185.800 M40.991 190.500 L 37.800 193.800 41.100 190.609 C 42.915 188.855,44.400 187.370,44.400 187.309 C 44.400 187.018,43.954 187.435,40.991 190.500 M359.983 189.700 C 360.964 190.745,361.819 191.600,361.883 191.600 C 362.184 191.600,361.866 191.241,360.100 189.583 L 358.200 187.800 359.983 189.700 M299.400 195.600 C 302.474 198.680,305.079 201.200,305.189 201.200 C 305.299 201.200,302.874 198.680,299.800 195.600 C 296.726 192.520,294.121 190.000,294.011 190.000 C 293.901 190.000,296.326 192.520,299.400 195.600 M102.800 196.200 C 101.828 197.190,101.123 198.000,101.233 198.000 C 101.343 198.000,102.228 197.190,103.200 196.200 C 104.172 195.210,104.877 194.400,104.767 194.400 C 104.657 194.400,103.772 195.210,102.800 196.200 M332.000 196.200 C 332.746 196.970,333.447 197.600,333.557 197.600 C 333.667 197.600,333.146 196.970,332.400 196.200 C 331.654 195.430,330.953 194.800,330.843 194.800 C 330.733 194.800,331.254 195.430,332.000 196.200 M32.400 199.000 C 30.761 200.650,29.510 202.000,29.620 202.000 C 29.730 202.000,31.161 200.650,32.800 199.000 C 34.439 197.350,35.690 196.000,35.580 196.000 C 35.470 196.000,34.039 197.350,32.400 199.000 M63.800 202.400 C 61.167 205.040,59.103 207.200,59.213 207.200 C 59.323 207.200,61.567 205.040,64.200 202.400 C 66.833 199.760,68.897 197.600,68.787 197.600 C 68.677 197.600,66.433 199.760,63.800 202.400 M99.375 200.100 L 98.200 201.400 99.500 200.225 C 100.215 199.579,100.800 198.994,100.800 198.925 C 100.800 198.616,100.470 198.888,99.375 200.100 M374.600 204.400 C 376.128 205.940,377.469 207.200,377.579 207.200 C 377.689 207.200,376.528 205.940,375.000 204.400 C 373.472 202.860,372.131 201.600,372.021 201.600 C 371.911 201.600,373.072 202.860,374.600 204.400 M339.200 203.400 C 339.946 204.170,340.647 204.800,340.757 204.800 C 340.867 204.800,340.346 204.170,339.600 203.400 C 338.854 202.630,338.153 202.000,338.043 202.000 C 337.933 202.000,338.454 202.630,339.200 203.400 M95.578 203.900 L 94.200 205.400 95.700 204.022 C 97.096 202.738,97.384 202.400,97.078 202.400 C 97.012 202.400,96.337 203.075,95.578 203.900 M27.178 204.300 L 25.800 205.800 27.300 204.422 C 28.125 203.663,28.800 202.988,28.800 202.922 C 28.800 202.616,28.462 202.904,27.178 204.300 M308.600 205.200 C 309.683 206.300,310.660 207.200,310.770 207.200 C 310.880 207.200,310.083 206.300,309.000 205.200 C 307.917 204.100,306.940 203.200,306.830 203.200 C 306.720 203.200,307.517 204.100,308.600 205.200 M89.192 210.700 L 85.400 214.600 89.300 210.808 C 92.922 207.286,93.382 206.800,93.092 206.800 C 93.033 206.800,91.278 208.555,89.192 210.700 M21.375 210.100 L 20.200 211.400 21.500 210.225 C 22.712 209.130,22.984 208.800,22.675 208.800 C 22.606 208.800,22.021 209.385,21.375 210.100 M54.575 211.700 L 53.400 213.000 54.700 211.825 C 55.912 210.730,56.184 210.400,55.875 210.400 C 55.806 210.400,55.221 210.985,54.575 211.700 M385.000 214.800 C 387.192 217.000,389.075 218.800,389.185 218.800 C 389.295 218.800,387.592 217.000,385.400 214.800 C 383.208 212.600,381.325 210.800,381.215 210.800 C 381.105 210.800,382.808 212.600,385.000 214.800 M315.200 212.125 C 315.200 212.194,315.785 212.779,316.500 213.425 L 317.800 214.600 316.625 213.300 C 315.530 212.088,315.200 211.816,315.200 212.125 M51.200 215.000 C 50.228 215.990,49.523 216.800,49.633 216.800 C 49.743 216.800,50.628 215.990,51.600 215.000 C 52.572 214.010,53.277 213.200,53.167 213.200 C 53.057 213.200,52.172 214.010,51.200 215.000 M14.181 217.300 L 12.600 219.000 14.300 217.419 C 15.881 215.948,16.184 215.600,15.881 215.600 C 15.816 215.600,15.051 216.365,14.181 217.300 M353.000 217.600 C 353.859 218.480,354.652 219.200,354.762 219.200 C 354.872 219.200,354.259 218.480,353.400 217.600 C 352.541 216.720,351.748 216.000,351.638 216.000 C 351.528 216.000,352.141 216.720,353.000 217.600 M319.600 216.525 C 319.600 216.594,320.185 217.179,320.900 217.825 L 322.200 219.000 321.025 217.700 C 319.930 216.488,319.600 216.216,319.600 216.525 M47.381 218.900 L 45.800 220.600 47.500 219.019 C 48.435 218.149,49.200 217.384,49.200 217.319 C 49.200 217.016,48.852 217.319,47.381 218.900 M391.000 220.800 C 391.859 221.680,392.652 222.400,392.762 222.400 C 392.872 222.400,392.259 221.680,391.400 220.800 C 390.541 219.920,389.748 219.200,389.638 219.200 C 389.528 219.200,390.141 219.920,391.000 220.800 M324.601 221.934 C 325.260 222.668,326.160 223.455,326.600 223.683 C 327.040 223.911,327.220 223.940,327.000 223.748 C 326.780 223.555,325.880 222.768,325.001 221.999 L 323.402 220.600 324.601 221.934 M39.193 227.100 L 35.000 231.400 39.300 227.207 C 43.294 223.313,43.782 222.800,43.493 222.800 C 43.434 222.800,41.499 224.735,39.193 227.100 M327.200 224.525 C 327.200 224.594,327.785 225.179,328.500 225.825 L 329.800 227.000 328.625 225.700 C 327.530 224.488,327.200 224.216,327.200 224.525 M364.200 228.800 C 365.059 229.680,365.852 230.400,365.962 230.400 C 366.072 230.400,365.459 229.680,364.600 228.800 C 363.741 227.920,362.948 227.200,362.838 227.200 C 362.728 227.200,363.341 227.920,364.200 228.800 M397.160 228.920 C 397.346 229.106,398.106 229.196,398.849 229.119 C 400.167 228.983,400.158 228.975,398.510 228.780 C 397.581 228.671,396.973 228.733,397.160 228.920 M333.600 231.400 C 334.346 232.170,335.047 232.800,335.157 232.800 C 335.267 232.800,334.746 232.170,334.000 231.400 C 333.254 230.630,332.553 230.000,332.443 230.000 C 332.333 230.000,332.854 230.630,333.600 231.400 M32.877 233.459 L 31.000 235.318 33.000 233.591 C 34.100 232.641,35.075 231.804,35.167 231.732 C 35.258 231.659,35.203 231.600,35.043 231.600 C 34.884 231.600,33.909 232.437,32.877 233.459 M370.200 234.800 C 371.283 235.900,372.260 236.800,372.370 236.800 C 372.480 236.800,371.683 235.900,370.600 234.800 C 369.517 233.700,368.540 232.800,368.430 232.800 C 368.320 232.800,369.117 233.700,370.200 234.800 M338.200 236.000 C 339.283 237.100,340.260 238.000,340.370 238.000 C 340.480 238.000,339.683 237.100,338.600 236.000 C 337.517 234.900,336.540 234.000,336.430 234.000 C 336.320 234.000,337.117 234.900,338.200 236.000 M397.360 237.360 C 396.612 238.108,396.001 238.963,396.001 239.260 C 396.002 239.557,396.339 239.249,396.750 238.575 C 397.161 237.901,398.105 237.050,398.849 236.684 C 399.733 236.249,399.944 236.015,399.460 236.009 C 399.053 236.004,398.108 236.612,397.360 237.360 M374.783 239.300 C 375.764 240.345,376.619 241.200,376.683 241.200 C 376.984 241.200,376.666 240.841,374.900 239.183 L 373.000 237.400 374.783 239.300 M340.800 300.320 L 341.000 362.200 341.101 300.621 C 341.157 266.753,341.067 238.907,340.901 238.741 C 340.736 238.576,340.690 266.286,340.800 300.320 M25.024 241.175 C 24.179 242.041,22.966 242.965,22.330 243.229 C 21.695 243.492,21.253 243.787,21.350 243.883 C 21.700 244.233,23.835 242.829,25.381 241.233 C 26.251 240.335,26.872 239.600,26.762 239.600 C 26.652 239.600,25.870 240.309,25.024 241.175 M169.700 241.076 C 170.085 241.176,170.715 241.176,171.100 241.076 C 171.485 240.975,171.170 240.893,170.400 240.893 C 169.630 240.893,169.315 240.975,169.700 241.076 M215.300 241.076 C 215.685 241.176,216.315 241.176,216.700 241.076 C 217.085 240.975,216.770 240.893,216.000 240.893 C 215.230 240.893,214.915 240.975,215.300 241.076 M223.700 241.091 C 224.525 241.178,225.875 241.178,226.700 241.091 C 227.525 241.005,226.850 240.934,225.200 240.934 C 223.550 240.934,222.875 241.005,223.700 241.091 M238.033 242.121 C 238.125 242.188,238.740 242.558,239.400 242.945 L 240.600 243.647 239.656 242.824 C 239.136 242.371,238.521 242.000,238.289 242.000 C 238.057 242.000,237.942 242.054,238.033 242.121 M11.200 244.200 C 11.750 244.514,12.380 244.772,12.600 244.772 C 12.820 244.772,12.550 244.514,12.000 244.200 C 11.450 243.886,10.820 243.628,10.600 243.628 C 10.380 243.628,10.650 243.886,11.200 244.200 M241.967 244.545 C 242.500 245.201,244.000 246.193,244.000 245.889 C 244.000 245.813,243.415 245.322,242.700 244.799 C 241.896 244.210,241.616 244.113,241.967 244.545 M60.992 281.600 C 60.992 302.170,61.040 310.585,61.100 300.300 C 61.159 290.015,61.159 273.185,61.100 262.900 C 61.040 252.615,60.992 261.030,60.992 281.600 M15.505 245.483 C 16.002 245.579,16.722 245.575,17.105 245.475 C 17.487 245.375,17.080 245.296,16.200 245.301 C 15.320 245.305,15.007 245.387,15.505 245.483 M249.795 315.000 C 249.795 347.560,249.842 360.821,249.900 344.469 C 249.958 328.116,249.958 301.476,249.900 285.269 C 249.842 269.061,249.795 282.440,249.795 315.000 M152.099 316.113 L 152.000 375.226 151.100 375.588 C 150.491 375.832,150.410 375.957,150.851 375.975 C 152.424 376.036,152.406 376.772,152.300 315.957 L 152.197 257.000 152.099 316.113 M60.985 340.400 C 60.985 351.070,61.037 355.435,61.100 350.100 C 61.163 344.765,61.163 336.035,61.100 330.700 C 61.037 325.365,60.985 329.730,60.985 340.400 M60.893 361.200 C 60.893 361.970,60.975 362.285,61.076 361.900 C 61.176 361.515,61.176 360.885,61.076 360.500 C 60.975 360.115,60.893 360.430,60.893 361.200 M337.800 369.489 C 336.405 371.343,336.258 371.852,337.535 370.400 C 338.213 369.630,338.775 368.865,338.784 368.700 C 338.809 368.228,338.656 368.351,337.800 369.489 M79.500 376.295 C 80.655 376.376,82.545 376.376,83.700 376.295 C 84.855 376.214,83.910 376.148,81.600 376.148 C 79.290 376.148,78.345 376.214,79.500 376.295 M99.100 376.297 C 100.695 376.373,103.305 376.373,104.900 376.297 C 106.495 376.221,105.190 376.159,102.000 376.159 C 98.810 376.159,97.505 376.221,99.100 376.297 M117.911 376.293 C 118.851 376.378,120.291 376.377,121.111 376.291 C 121.930 376.205,121.160 376.136,119.400 376.137 C 117.640 376.139,116.970 376.209,117.911 376.293 M137.116 376.297 C 138.499 376.375,140.659 376.374,141.916 376.295 C 143.172 376.216,142.040 376.152,139.400 376.153 C 136.760 376.153,135.732 376.218,137.116 376.297 M253.911 376.293 C 254.851 376.378,256.291 376.377,257.111 376.291 C 257.930 376.205,257.160 376.136,255.400 376.137 C 253.640 376.139,252.970 376.209,253.911 376.293 M270.115 376.296 C 271.388 376.376,273.368 376.375,274.515 376.294 C 275.662 376.214,274.620 376.149,272.200 376.150 C 269.780 376.151,268.842 376.216,270.115 376.296 M289.300 376.297 C 290.785 376.374,293.215 376.374,294.700 376.297 C 296.185 376.220,294.970 376.157,292.000 376.157 C 289.030 376.157,287.815 376.220,289.300 376.297 M309.715 376.296 C 310.988 376.376,312.968 376.375,314.115 376.294 C 315.262 376.214,314.220 376.149,311.800 376.150 C 309.380 376.151,308.442 376.216,309.715 376.296 " stroke="none" fill="#747474" fill-rule="evenodd"></path></g></svg>